<svg width="22" height="21" viewBox="0 0 22 21" fill="none" xmlns="http://www.w3.org/2000/svg">
<path d="M15.1 11.3L13.65 9.85005C13.8 9.06672 13.575 8.33338 12.975 7.65005C12.375 6.96672 11.6 6.70005 10.65 6.85005L9.2 5.40005C9.48333 5.26672 9.77083 5.16672 10.0625 5.10005C10.3542 5.03338 10.6667 5.00005 11 5.00005C12.25 5.00005 13.3125 5.43755 14.1875 6.31255C15.0625 7.18755 15.5 8.25005 15.5 9.50005C15.5 9.83338 15.4667 10.1459 15.4 10.4375C15.3333 10.7292 15.2333 11.0167 15.1 11.3ZM18.3 14.4501L16.85 13.05C17.4833 12.5667 18.0458 12.0375 18.5375 11.4626C19.0292 10.8875 19.45 10.2334 19.8 9.50005C18.9667 7.81672 17.7708 6.47922 16.2125 5.48755C14.6542 4.49588 12.9167 4.00005 11 4.00005C10.5167 4.00005 10.0417 4.03338 9.575 4.10005C9.10833 4.16672 8.65 4.26672 8.2 4.40005L6.65 2.85005C7.33333 2.56672 8.03333 2.35422 8.75 2.21255C9.46667 2.07088 10.2167 2.00005 11 2.00005C13.5167 2.00005 15.7583 2.69588 17.725 4.08755C19.6917 5.47922 21.1167 7.28338 22 9.50005C21.6167 10.4834 21.1125 11.3959 20.4875 12.2375C19.8625 13.0792 19.1333 13.8167 18.3 14.4501ZM18.8 20.6L14.6 16.4501C14.0167 16.6334 13.4292 16.7709 12.8375 16.8626C12.2458 16.9542 11.6333 17 11 17C8.48333 17 6.24167 16.3042 4.275 14.9125C2.30833 13.5209 0.883333 11.7167 0 9.50005C0.35 8.61672 0.791667 7.79588 1.325 7.03755C1.85833 6.27922 2.46667 5.60005 3.15 5.00005L0.4 2.20005L1.8 0.800049L20.2 19.2001L18.8 20.6ZM4.55 6.40005C4.06667 6.83338 3.625 7.30838 3.225 7.82505C2.825 8.34172 2.48333 8.90005 2.2 9.50005C3.03333 11.1834 4.22917 12.5209 5.7875 13.5126C7.34583 14.5042 9.08333 15.0001 11 15.0001C11.3333 15.0001 11.6583 14.9792 11.975 14.9376C12.2917 14.8959 12.6167 14.85 12.95 14.8L12.05 13.85C11.8667 13.9001 11.6917 13.9375 11.525 13.9626C11.3583 13.9875 11.1833 14 11 14C9.75 14 8.6875 13.5625 7.8125 12.6875C6.9375 11.8125 6.5 10.75 6.5 9.50005C6.5 9.31672 6.5125 9.14172 6.5375 8.97505C6.5625 8.80838 6.6 8.63338 6.65 8.45005L4.55 6.40005Z" fill="#828FA3"/>
</svg>
